#!OML:ASF F:\VICON\USERDATA\INSTALL\rory3\rory3.ASF
:FULLY-SPECIFIED
:DEGREES
2344
root -2.9841 17.4857 0.833993 1.32172 5.85766 4.40138
lowerback 3.23638 -0.486231 1.25455
upperback -0.0872871 -0.54522 2.73881
thorax -1.88964 -0.270743 2.13565
lowerneck -21.2459 -3.88342 -9.11547
upperneck 27.818 -3.47421 3.72521
head 13.1253 -1.9889 2.38908
rclavicle 1.26725e-014 1.59028e-014
rhumerus -30.9116 -17.1139 -52.0554
rradius 70.9259
rwrist 9.32876
rhand -31.3257 12.0361
rfingers 7.12502
rthumb -4.59763 -17.894
lclavicle 1.26725e-014 1.59028e-014
lhumerus -29.6743 17.3414 55.134
lradius 68.4204
lwrist 6.22534
lhand -15.908 14.777
lfingers 7.12502
lthumb 10.2889 44.5053
rfemur -10.4215 -1.37028 13.8093
rtibia 39.0516
rfoot -27.3977 -7.08142
rtoes 1.35156
lfemur -9.52068 -3.81621 -14.4459
ltibia 27.3993
lfoot -13.5314 -0.214412
ltoes -25.3849
2345
root -2.93417 17.4866 0.842394 1.38371 6.25442 4.68532
lowerback 3.14098 -0.660361 1.25668
upperback -0.146487 -0.774496 2.92113
thorax -1.8882 -0.384129 2.33271
lowerneck -21.1498 -3.92226 -9.17424
upperneck 27.7796 -3.47491 3.58616
head 13.0895 -2.01495 2.34403
rclavicle -1.23246e-014 3.18055e-015
rhumerus -31.1189 -17.7142 -50.9852
rradius 71.0454
rwrist 8.57108
rhand -31.2891 11.8143
rfingers 7.12502
rthumb -4.56231 -18.1166
lclavicle -1.23246e-014 3.18055e-015
lhumerus -29.2302 17.5424 53.9746
lradius 68.5586
lwrist 6.30998
lhand -15.5541 14.934
lfingers 7.12502
lthumb 10.6303 44.6451
rfemur -10.385 -1.48308 13.3476
rtibia 39.1928
rfoot -27.599 -7.33492
rtoes 0.726027
lfemur -9.33948 -3.48443 -15.0374
ltibia 26.9252
lfoot -13.6683 -0.302848
ltoes -25.0013
2346
root -2.88122 17.485 0.852593 1.47239 6.69416 4.85986
lowerback 2.98471 -0.835711 1.40852
upperback -0.201513 -1.00167 3.12104
thorax -1.8492 -0.497826 2.4622
lowerneck -21.0659 -3.96668 -9.33075
upperneck 27.6755 -3.49425 3.59784
head 13.0358 -2.03756 2.37053
rclavicle -5.66536e-015 -4.13472e-014
rhumerus -31.2825 -18.3263 -49.9007
rradius 71.1103
rwrist 7.75275
rhand -31.6423 11.7878
rfingers 7.12502
rthumb -4.90331 -18.1354
lclavicle -5.66536e-015 -4.13472e-014
lhumerus -28.6877 17.9664 52.8919
lradius 68.6708
lwrist 6.11734
lhand -15.62 14.888
lfingers 7.12502
lthumb 10.5667 44.6024
rfemur -10.3163 -1.63955 12.9915
rtibia 39.2941
rfoot -27.8768 -7.51591
rtoes 0.369189
lfemur -9.2319 -3.30406 -15.5107
ltibia 26.4855
lfoot -13.7376 -0.276764
ltoes -24.8879
2347
root -2.82824 17.482 0.859305 1.60712 7.1002 5.21109
lowerback 2.771 -0.963161 1.39745
upperback -0.225359 -1.17548 3.2692
thorax -1.74493 -0.583805 2.62501
lowerneck -21.06 -4.09635 -9.46847
upperneck 27.6181 -3.58984 3.46515
head 13.0212 -2.11138 2.32347
rclavicle -1.09332e-015 1.59028e-014
rhumerus -31.4179 -18.9794 -48.8627
rradius 71.209
rwrist 6.44954
rhand -32.0477 11.5891
rfingers 7.12502
rthumb -5.29482 -18.3248
lclavicle -1.09332e-015 1.59028e-014
lhumerus -28.0159 18.1746 51.8434
lradius 68.8192
lwrist 6.13464
lhand -15.5781 15.0441
lfingers 7.12502
lthumb 10.6071 44.7564
rfemur -10.2519 -1.68412 12.4428
rtibia 39.3458
rfoot -28.1457 -7.53863
rtoes 1.39139
lfemur -9.14719 -3.23247 -16.1692
ltibia 26.074
lfoot -13.7684 -0.234976
ltoes -24.8551
2348
root -2.77289 17.4792 0.864232 1.62976 7.46358 5.44146
lowerback 2.7327 -1.08387 1.52814
upperback -0.294548 -1.32703 3.44915
thorax -1.78814 -0.659427 2.74413
lowerneck -21.0218 -4.25878 -9.70958
upperneck 27.6471 -3.74522 3.47055
head 13.0457 -2.20542 2.33873
rclavicle 4.57205e-015 3.18055e-015
rhumerus -31.7239 -19.492 -47.7426
rradius 71.3727
rwrist 5.15824
rhand -32.2895 11.2402
rfingers 7.12502
rthumb -5.52821 -18.6677
lclavicle 4.57205e-015 3.18055e-015
lhumerus -27.4905 18.1721 50.6966
lradius 69.0459
lwrist 6.35805
lhand -15.4226 15.0389
lfingers 7.12502
lthumb 10.7572 44.7435
rfemur -10.0805 -1.70589 12.0053
rtibia 39.3684
rfoot -28.3159 -7.55213
rtoes 2.23936
lfemur -8.96601 -3.26752 -16.6789
ltibia 25.7115
lfoot -13.7326 -0.211606
ltoes -24.9166
2349
root -2.7172 17.4783 0.869569 1.68288 7.81794 5.83114
lowerback 2.72255 -1.23695 1.44713
upperback -0.410744 -1.52608 3.62631
thorax -1.88794 -0.756453 2.98314
lowerneck -20.8496 -4.31781 -9.81233
upperneck 27.6455 -3.75742 3.2912
head 13.0115 -2.24786 2.28466
rclavicle 7.85199e-015 -7.95139e-015
rhumerus -32.0232 -20.0474 -46.5063
rradius 71.4448
rwrist 4.62207
rhand -32.1861 11.0694
rfingers 7.12502
rthumb -5.42845 -18.8411
lclavicle 7.85199e-015 -7.95139e-015
lhumerus -27.0218 18.1883 49.4366
lradius 69.2475
lwrist 6.50581
lhand -15.4891 15.287
lfingers 7.12502
lthumb 10.693 44.9949
rfemur -9.91923 -1.76227 11.389
rtibia 39.3758
rfoot -28.4564 -7.64945
rtoes 2.44661
lfemur -8.80883 -3.47617 -17.3312
ltibia 25.4008
lfoot -13.683 -0.272041
ltoes -24.7428
2350
root -2.66218 17.4862 0.873578 1.78854 8.22293 6.08047
lowerback 2.57219 -1.40038 1.51761
upperback -0.442925 -1.74164 3.83382
thorax -1.82371 -0.863629 3.16358
lowerneck -20.7835 -4.38762 -9.801
upperneck 27.5286 -3.7631 2.95705
head 12.9453 -2.29311 2.14986
rclavicle -3.10104e-014 3.97569e-014
rhumerus -32.1838 -20.7521 -45.3076
rradius 71.4686
rwrist 4.16668
rhand -31.6598 10.9854
rfingers 7.12502
rthumb -4.92028 -18.9374
lclavicle -3.10104e-014 3.97569e-014
lhumerus -26.273 18.2604 48.2624
lradius 69.3551
lwrist 6.73628
lhand -16.0915 15.6677
lfingers 7.12502
lthumb 10.1119 45.4047
rfemur -9.81335 -1.82814 10.9567
rtibia 39.3401
rfoot -28.6383 -7.9239
rtoes 2.33196
lfemur -8.80586 -3.6503 -17.7708
ltibia 25.1921
lfoot -13.6214 -0.59458
ltoes -24.5199
2351
root -2.60692 17.4911 0.87796 1.86203 8.53325 6.4404
lowerback 2.46551 -1.52618 1.47469
upperback -0.426471 -1.91242 3.99126
thorax -1.73284 -0.947955 3.35377
lowerneck -20.8911 -4.49805 -9.78439
upperneck 27.4751 -3.82655 2.6741
head 12.9458 -2.356 2.02304
rclavicle 4.17448e-015 3.18055e-014
rhumerus -32.2905 -21.4649 -44.2848
rradius 71.561
rwrist 3.39571
rhand -31.7959 10.7038
rfingers 7.12502
rthumb -5.05171 -19.216
lclavicle 4.17448e-015 3.18055e-014
lhumerus -25.4836 18.3649 47.0365
lradius 69.38
lwrist 6.80966
lhand -16.2479 15.7084
lfingers 7.12502
lthumb 9.96103 45.4527
rfemur -9.66685 -1.83563 10.4036
rtibia 39.2721
rfoot -28.7403 -8.2285
rtoes 2.54165
lfemur -8.80075 -3.66907 -18.3122
ltibia 25.0625
lfoot -13.6051 -0.993532
ltoes -24.4723
2352
root -2.55578 17.4919 0.882698 1.83581 8.82586 6.67875
lowerback 2.51741 -1.62548 1.48945
upperback -0.437951 -2.03732 4.20257
thorax -1.761 -1.00909 3.57157
lowerneck -20.9892 -4.60144 -9.67786
upperneck 27.458 -3.8807 2.28679
head 12.9536 -2.42045 1.8426
rclavicle 2.43511e-014 2.8625e-014
rhumerus -32.4727 -22.0569 -43.2495
rradius 71.6029
rwrist 2.22822
rhand -32.2837 10.3669
rfingers 7.12502
rthumb -5.5227 -19.5411
lclavicle 2.43511e-014 2.8625e-014
lhumerus -24.7315 18.3402 45.7815
lradius 69.4009
lwrist 6.9294
lhand -15.6009 15.7352
lfingers 7.12502
lthumb 10.5851 45.4486
rfemur -9.42389 -1.73482 10.0135
rtibia 39.1788
rfoot -28.8162 -8.54254
rtoes 2.57757
lfemur -8.73865 -3.44277 -18.6882
ltibia 25.0075
lfoot -13.6262 -1.67507
ltoes -23.9244
2353
root -2.50511 17.5003 0.887146 1.90598 9.11347 6.86816
lowerback 2.45211 -1.73425 1.51086
upperback -0.462341 -2.17808 4.45705
thorax -1.7335 -1.07818 3.82761
lowerneck -21.147 -4.74131 -9.76197
upperneck 27.4928 -3.97825 2.10779
head 13.0077 -2.49637 1.76662
rclavicle -5.56597e-015 0
rhumerus -32.5734 -22.6355 -42.1868
rradius 71.5957
rwrist 1.05065
rhand -32.841 9.82269
rfingers 7.12502
rthumb -6.06068 -20.0706
lclavicle -5.56597e-015 0
lhumerus -24.0215 18.359 44.5211
lradius 69.5083
lwrist 7.2015
lhand -15.2506 16.1888
lfingers 7.12502
lthumb 10.923 45.8847
rfemur -9.2931 -1.58708 9.67897
rtibia 39.1162
rfoot -29.0799 -8.6916
rtoes 2.77676
lfemur -8.78324 -2.89659 -18.986
ltibia 24.9213
lfoot -13.5793 -2.71618
ltoes -23.627
2354
root -2.45305 17.5054 0.887661 2.01425 9.35136 7.1088
lowerback 2.33339 -1.83253 1.54105
upperback -0.46222 -2.30899 4.67337
thorax -1.65204 -1.14307 4.03597
lowerneck -21.4062 -4.87922 -9.82719
upperneck 27.5916 -4.06586 1.92437
head 13.1074 -2.56728 1.68574
rclavicle 2.85256e-014 -9.54166e-015
rhumerus -32.5808 -23.308 -41.1627
rradius 71.4722
rwrist 0.100237
rhand -33.3101 9.19107
rfingers 7.12502
rthumb -6.51362 -20.6888
lclavicle 2.85256e-014 -9.54166e-015
lhumerus -23.1902 18.5095 43.2524
lradius 69.4642
lwrist 7.4693
lhand -15.3842 17.2675
lfingers 7.12502
lthumb 10.7942 46.9702
rfemur -9.23608 -1.58954 9.27132
rtibia 39.0612
rfoot -29.235 -8.91744
rtoes 1.91023
lfemur -8.86728 -2.28531 -19.3515
ltibia 24.8373
lfoot -13.4405 -3.76985
ltoes -23.7427
2355
root -2.40122 17.5065 0.888834 2.12799 9.51318 7.46349
lowerback 2.25767 -1.90587 1.44032
upperback -0.499202 -2.40762 4.87202
thorax -1.62934 -1.19036 4.30129
lowerneck -21.3708 -5.0126 -10.0861
upperneck 27.4483 -4.18072 1.96243
head 13.0595 -2.63704 1.72218
rclavicle 7.35503e-015 3.18055e-015
rhumerus -32.676 -23.8363 -40.0642
rradius 71.3562
rwrist -0.867731
rhand -33.9668 8.51854
rfingers 7.12502
rthumb -7.14755 -21.3408
lclavicle 7.35503e-015 3.18055e-015
lhumerus -22.4023 18.6019 42.0126
lradius 69.4069
lwrist 7.57689
lhand -15.6715 17.7257
lfingers 7.12502
lthumb 10.5171 47.4426
rfemur -9.1905 -1.57077 8.74246
rtibia 39.0279
rfoot -29.2953 -9.34476
rtoes 0.295788
lfemur -8.90134 -1.85568 -19.8525
ltibia 24.7227
lfoot -13.152 -4.65878
ltoes -22.9891
2356
root -2.35151 17.5043 0.889109 2.10421 9.64112 7.58905
lowerback 2.35845 -1.97582 1.52291
upperback -0.582359 -2.48385 5.14469
thorax -1.75858 -1.22629 4.54907
lowerneck -21.1282 -5.07589 -10.1921
upperneck 27.3016 -4.20937 1.78808
head 12.9531 -2.68326 1.66949
rclavicle -6.16232e-015 2.54444e-014
rhumerus -32.8716 -24.112 -38.9601
rradius 71.3316
rwrist -2.06705
rhand -34.3636 7.99119
rfingers 7.12502
rthumb -7.53055 -21.8548
lclavicle -6.16232e-015 2.54444e-014
lhumerus -21.6603 18.7559 40.6835
lradius 69.2701
lwrist 7.51941
lhand -15.7422 16.7284
lfingers 7.12502
lthumb 10.4488 46.4488
rfemur -9.0316 -1.42532 8.47942
rtibia 38.9863
rfoot -29.3351 -9.71545
rtoes -0.646642
lfemur -8.81135 -1.46803 -20.1021
ltibia 24.5983
lfoot -12.9775 -5.32822
ltoes -22.0403
2357
root -2.30073 17.5028 0.889185 2.12657 9.65211 7.83742
lowerback 2.34553 -2.02674 1.51035
upperback -0.588359 -2.54811 5.35785
thorax -1.74322 -1.25715 4.7814
lowerneck -21.1302 -5.15099 -10.2758
upperneck 27.2668 -4.24849 1.66116
head 12.9433 -2.72594 1.62622
rclavicle 5.09883e-014 -1.59028e-014
rhumerus -32.9391 -24.677 -37.9296
rradius 71.0967
rwrist -2.7953
rhand -34.5729 8.17831
rfingers 7.12502
rthumb -7.73255 -21.6603
lclavicle 5.09883e-014 -1.59028e-014
lhumerus -20.684 19.3854 39.3566
lradius 69.0088
lwrist 7.41283
lhand -15.3856 16.1175
lfingers 7.12502
lthumb 10.7928 45.8202
rfemur -8.92802 -1.22525 8.07216
rtibia 38.9427
rfoot -29.467 -9.88034
rtoes -1.05425
lfemur -8.69885 -1.18096 -20.5156
ltibia 24.4333
lfoot -12.9055 -5.72954
ltoes -21.4182
2358
root -2.24757 17.5076 0.89072 2.24587 9.62271 8.09405
lowerback 2.24719 -2.08574 1.52753
upperback -0.599532 -2.62667 5.54665
thorax -1.68603 -1.29592 4.96848
lowerneck -21.1947 -5.19429 -10.2741
upperneck 27.2168 -4.26131 1.52344
head 12.9345 -2.74891 1.5685
rclavicle 0 6.36111e-015
rhumerus -32.9877 -25.3531 -36.9058
rradius 70.8309
rwrist -3.40888
rhand -34.1439 8.84928
rfingers 7.12502
rthumb -7.31851 -21.0041
lclavicle 0 6.36111e-015
lhumerus -19.8516 19.6843 37.915
lradius 68.7397
lwrist 7.58461
lhand -15.0789 16.0048
lfingers 7.12502
lthumb 11.0887 45.6919
rfemur -8.92622 -1.1189 7.62904
rtibia 38.8459
rfoot -29.4471 -10.1082
rtoes -1.73535
lfemur -8.70046 -0.804311 -20.9702
ltibia 24.2933
lfoot -12.9775 -6.08939
ltoes -21.355
